<svg viewBox="0 0 25 24" fill="none" xmlns="http://www.w3.org/2000/svg">
<path d="M15.5 12H17V16.25L19.86 17.94L19.11 19.16L15.5 17V12ZM23.5 16C23.5 17.8565 22.7625 19.637 21.4497 20.9497C20.137 22.2625 18.3565 23 16.5 23C13.5 23 10.9 21.08 9.92 18.4L8.5 17.9L3.16 19.97L3 20C2.86739 20 2.74021 19.9473 2.64645 19.8536C2.55268 19.7598 2.5 19.6326 2.5 19.5V4.38C2.5 4.15 2.65 3.97 2.86 3.9L8.5 2L14.5 4.1L19.84 2H20C20.1326 2 20.2598 2.05268 20.3536 2.14645C20.4473 2.24021 20.5 2.36739 20.5 2.5V10.25C22.31 11.5 23.5 13.62 23.5 16ZM9.5 16C9.5 12.83 11.61 10.15 14.5 9.29V6.11L8.5 4V15.89L9.5 16.24V16ZM16.5 11C15.1739 11 13.9021 11.5268 12.9645 12.4645C12.0268 13.4021 11.5 14.6739 11.5 16C11.5 17.3261 12.0268 18.5979 12.9645 19.5355C13.9021 20.4732 15.1739 21 16.5 21C17.8261 21 19.0979 20.4732 20.0355 19.5355C20.9732 18.5979 21.5 17.3261 21.5 16C21.5 14.6739 20.9732 13.4021 20.0355 12.4645C19.0979 11.5268 17.8261 11 16.5 11Z" fill="#171A21"/>
</svg>
